<svg width="377" height="118" viewBox="0 0 377 118" fill="none" xmlns="http://www.w3.org/2000/svg">
<path d="M13.0777 118C11.1003 118 9.07802 117.641 7.01075 116.924C5.03336 116.206 3.37055 115.085 2.02233 113.56C0.67411 112.035 0 110.106 0 107.774C0 107.415 0 107.012 0 106.563C0.0898814 106.115 0.179763 105.711 0.269644 105.352C0.719051 103.11 2.02233 101.226 4.17948 99.7012C6.42652 98.266 8.67355 97.5933 10.9206 97.683C11.7295 96.3375 12.9429 95.6648 14.5608 95.6648C15.7292 95.6648 16.7629 96.1133 17.6617 97.0103C18.0212 97.1 18.3807 97.1448 18.7403 97.1448C19.1897 97.2345 19.6391 97.2794 20.0885 97.2794C20.8075 97.2794 21.4816 97.1897 22.1108 97.0103C22.74 96.8309 23.0995 96.5169 23.1894 96.0684C23.459 95.1714 23.7736 95.1266 24.1331 95.9339C24.3129 96.5618 24.268 97.2794 23.9983 98.0866C23.7287 98.9836 22.8299 99.5218 21.3019 99.7012C20.5828 99.7012 19.7739 99.477 18.8751 99.0285L19.0099 99.2976C19.1897 100.015 19.2796 100.598 19.2796 101.047C19.2796 101.585 19.2346 102.123 19.1447 102.661C19.0548 103.2 19.0099 103.693 19.0099 104.141C19.0099 105.038 19.3245 105.801 19.9537 106.429C20.5828 107.057 21.2569 107.281 21.976 107.101C21.2569 108.357 20.2233 108.985 18.8751 108.985C17.7965 108.985 16.7629 108.537 15.7742 107.64C14.8754 106.832 14.381 105.756 14.2911 104.41C14.2013 102.616 13.9316 101.226 13.4822 100.239C13.1227 99.3424 12.3587 98.8043 11.1902 98.6248H11.0554C9.34766 98.5351 7.63992 99.2079 5.93217 100.643C4.22442 102.168 3.14585 103.872 2.69644 105.756C2.60656 106.115 2.51668 106.474 2.4268 106.832C2.4268 107.281 2.4268 107.685 2.4268 108.043C2.4268 110.555 3.41549 112.528 5.39288 113.964C7.37027 115.399 9.61731 116.116 12.134 116.116C16.1786 116.116 20.448 114.591 24.9421 111.542C29.4361 108.492 34.0201 104.455 38.6939 99.4322C43.3678 94.409 47.9967 88.8476 52.5806 82.748C57.2544 76.6484 61.6586 70.5488 65.7932 64.4492H48.2663C41.1657 64.4492 35.9525 65.9293 32.6269 68.8894C29.3013 71.8495 27.6385 75.1684 27.6385 78.8461C27.6385 80.8195 28.0879 82.748 28.9867 84.6317C29.8856 86.4257 31.1888 88.0403 32.8966 89.4755L32.4921 90.0137C31.1439 89.5652 29.7957 88.6682 28.4475 87.3227C27.1891 85.9772 26.1555 84.4074 25.3465 82.6134C24.5376 80.8195 24.1331 79.1152 24.1331 77.5006C24.1331 73.4641 26.2004 69.9658 30.335 67.0057C34.5594 64.0456 40.5365 62.5656 48.2663 62.5656H52.5806C51.4121 62.2068 50.2437 61.6237 49.0752 60.8164C47.9966 59.9194 47.4574 58.8879 47.4574 57.7218C47.4574 56.7351 47.8169 55.8381 48.5359 55.0308C49.255 54.2235 49.974 53.775 50.6931 53.6853H51.0976C51.4571 53.6853 51.6368 53.775 51.6368 53.9544C51.6368 54.2235 51.4121 54.5823 50.9627 55.0308C50.6931 55.2999 50.5583 55.6587 50.5583 56.1072C50.5583 57.1836 51.0976 58.3497 52.1761 59.6055C53.2547 60.8613 54.1985 61.7134 55.0074 62.1619C55.7264 62.2516 56.1759 62.3862 56.3556 62.5656H67.1414C68.22 61.0407 69.2536 59.4709 70.2423 57.8563C71.3209 56.2417 72.3545 54.7168 73.3432 53.2816C75.3206 50.3215 77.6575 47.1372 80.3539 43.7286C83.0504 40.32 86.0165 36.9114 89.2522 33.5028C92.4879 30.0046 95.8135 26.8651 99.229 24.0844C93.4766 22.8286 87.4995 21.4831 81.2977 20.0479C75.0959 18.6127 68.939 17.4017 62.8271 16.4151C56.805 15.3387 51.0077 14.8005 45.435 14.8005C40.3118 14.8005 35.5031 15.3835 31.0091 16.5496C26.6049 17.7157 22.695 19.7788 19.2796 22.7389C16.2236 25.5196 13.8867 28.5245 12.2688 31.7537C10.7408 34.8932 9.97683 37.9878 9.97683 41.0376C9.97683 45.2535 11.5048 48.8415 14.5608 51.8016C17.6167 54.7617 22.2007 56.0623 28.3126 55.7035C28.2227 55.5241 28.1778 55.2999 28.1778 55.0308C28.1778 54.7617 28.1778 54.5374 28.1778 54.358C28.1778 52.1155 29.0766 50.3215 30.8743 48.976C32.1326 48.0791 33.2561 47.496 34.2448 47.2269C35.2335 46.9578 36.1772 46.7784 37.0761 46.6887C38.0648 46.5093 39.0984 46.016 40.177 45.2087C41.3454 44.4014 41.9297 43.4147 41.9297 42.2486C41.9297 42.0692 41.8398 41.7104 41.66 41.1722C41.8398 41.1722 42.1094 41.217 42.4689 41.3067C42.9184 41.3964 43.3228 41.8001 43.6823 42.5177C43.952 42.8765 44.1317 43.325 44.2216 43.8632C44.3115 44.4014 44.3565 44.9396 44.3565 45.4778C44.3565 47.3615 43.8172 49.4245 42.7386 51.667C41.7499 53.8198 40.6264 55.4793 39.368 56.6454C38.4692 57.4527 37.4805 58.0357 36.402 58.3945C35.4133 58.7533 34.4246 58.9327 33.4359 58.9327C31.6382 58.9327 30.335 58.4842 29.526 57.5872C29.1665 57.2284 28.9418 56.9593 28.8519 56.7799C24.1781 57.049 20.1334 56.5557 16.7179 55.2999C13.3024 53.9544 10.5161 52.1604 8.35897 49.9179C8.53873 50.4561 8.67355 50.9943 8.76343 51.5325C8.85331 52.0707 8.89826 52.6537 8.89826 53.2816C8.89826 54.1786 8.76343 55.1205 8.49379 56.1072C9.12296 56.466 9.57236 56.9593 9.84201 57.5872C10.1117 58.1254 10.2465 58.7085 10.2465 59.3364C10.2465 60.3231 10.0218 61.3098 9.57237 62.2965C9.21284 63.1935 8.76343 63.9559 8.22414 64.5838C7.59497 65.2117 6.5164 66.1087 4.98842 67.2748C3.46043 68.3512 1.93245 68.7548 0.404466 68.4857C0.67411 68.1269 1.2134 67.4542 2.02233 66.4675C2.83126 65.4808 3.23573 64.1353 3.23573 62.431C3.23573 61.6237 3.10091 60.7716 2.83126 59.8746C2.47174 58.3497 2.8762 57.2284 4.04466 56.5108C5.21312 55.7932 6.2917 55.5241 7.28039 55.7035C7.37027 55.255 7.41521 54.8514 7.41521 54.4926C7.50509 54.0441 7.55003 53.6404 7.55003 53.2816C7.55003 51.667 7.19051 49.9179 6.47146 48.0342C6.38158 47.8548 6.33664 47.6306 6.33664 47.3615C4.17948 44.1323 3.10091 40.4994 3.10091 36.4629C3.10091 32.4265 4.26936 28.4348 6.60628 24.488C8.9432 20.4515 12.4935 17.0878 17.2572 14.3968C20.493 12.5131 23.9983 11.2125 27.7733 10.4949C31.5484 9.68757 35.5031 9.28392 39.6377 9.28392C46.1091 9.28392 52.8952 10.0015 59.9958 11.4367C67.0964 12.8719 74.1521 14.5762 81.1629 16.5496C88.2635 18.523 95.0495 20.3618 101.521 22.0661C105.116 19.1957 108.487 17.2223 111.633 16.146C114.779 15.0696 117.565 14.5314 119.992 14.5314C120.98 14.5314 121.879 14.6211 122.688 14.8005C123.587 14.8902 124.396 15.0247 125.115 15.2041C127.092 15.7423 128.62 16.6393 129.699 17.8951C130.777 19.0612 131.317 20.2721 131.317 21.5279C131.317 23.1425 130.418 24.5777 128.62 25.8335C126.912 27.0893 124.126 27.7172 120.261 27.7172C118.643 27.7172 116.801 27.5827 114.734 27.3136C112.756 27.0445 110.734 26.6857 108.667 26.2372C106.689 25.699 104.532 25.2056 102.195 24.7571C99.4088 27.0893 96.4427 30.3634 93.2969 34.5792C90.151 38.7054 86.9602 43.2353 83.7245 48.1688C80.5786 53.1022 77.5676 57.9012 74.6914 62.5656H84.8031C89.0275 62.5656 92.3531 62.3862 94.7799 62.0274C97.2966 61.5789 98.8695 60.637 99.4987 59.2018L100.577 59.6055C99.8582 61.3098 98.3302 62.5207 95.9933 63.2383C95.9933 63.328 95.8585 63.3729 95.5888 63.3729C94.0609 63.7317 92.5778 64.3596 91.1397 65.2566C89.7016 66.0639 88.4882 66.9608 87.4995 67.9475C88.3983 68.396 89.0724 69.1136 89.5218 70.1003C89.9712 70.9973 90.1959 71.9392 90.1959 72.9259C90.1959 73.6435 90.0611 74.3611 89.7915 75.0787C89.3421 76.3345 88.8028 77.3212 88.1736 78.0388C87.5444 78.7564 86.9153 79.3843 86.2861 79.9225C85.8367 80.371 85.3873 80.9989 84.9379 81.8062C84.5784 82.6134 84.3986 83.3759 84.3986 84.0935C84.3986 85.1699 84.8031 85.9772 85.612 86.5154C85.3424 86.7845 85.0278 86.919 84.6682 86.919C82.9605 86.919 81.6123 85.7529 80.6236 83.4207C79.7248 80.9989 79.2754 78.6218 79.2754 76.2896C79.2754 73.5089 80.0843 71.3113 81.7022 69.6967C83.32 68.0821 84.848 67.3645 86.2861 67.5439C87.4546 66.1087 88.4433 65.0323 89.2522 64.3147C87.8141 64.4044 86.2861 64.4492 84.6682 64.4492C83.0504 64.4492 81.3426 64.4492 79.545 64.4492H73.478C72.2197 66.602 70.9613 68.6651 69.703 70.6385C68.5345 72.5222 67.411 74.3162 66.3325 76.0205C58.1532 88.9373 49.6145 99.163 40.7163 106.698C31.9079 114.233 22.695 118 13.0777 118ZM119.587 25.8335C122.194 25.8335 123.991 25.385 124.98 24.488C126.059 23.5013 126.598 22.4249 126.598 21.2588C126.598 19.4648 125.744 18.2539 124.036 17.626C122.418 16.9084 120.801 16.5496 119.183 16.5496C116.486 16.5496 113.88 17.2223 111.363 18.5678C108.846 19.8236 106.42 21.214 104.083 22.7389C105.341 23.008 107.004 23.4116 109.071 23.9498C111.228 24.488 113.43 24.9814 115.677 25.4299C117.205 25.699 118.509 25.8335 119.587 25.8335Z" fill="black"/>
<path d="M126.399 93.512C126.039 93.512 125.635 93.4671 125.185 93.3774C124.736 93.3774 124.287 93.3326 123.837 93.2429C121.231 92.615 119.343 91.4489 118.175 89.7446C117.096 87.9506 116.557 85.7978 116.557 83.2862C116.557 81.3128 116.826 79.2049 117.366 76.9624C117.995 74.6302 118.759 72.2083 119.658 69.6967C121.186 65.7499 123.073 61.3995 125.32 56.6454C127.657 51.8016 130.264 46.8681 133.14 41.8449C136.106 36.732 139.207 31.7986 142.443 27.0445C145.768 22.2904 149.184 17.9848 152.689 14.1277C154.756 11.7955 156.824 9.68757 158.891 7.80388C161.048 5.92018 163.16 4.39529 165.228 3.22919C168.733 1.0764 171.969 0 174.935 0C176.732 0 178.126 0.448498 179.114 1.34549C180.193 2.15279 180.732 3.45344 180.732 5.24744C180.732 6.41354 180.462 7.75903 179.923 9.28392C179.474 10.7191 178.665 12.3786 177.496 14.2623C175.249 18.0296 172.328 21.9764 168.733 26.1026C165.228 30.2288 161.408 34.2653 157.273 38.2121C153.139 42.0692 148.959 45.6123 144.735 48.8415C140.6 52.0707 136.69 54.7168 133.005 56.7799C131.207 60.0091 129.5 63.4626 127.882 67.1402C126.264 70.7282 124.961 74.1817 123.972 77.5006C122.983 80.7298 122.489 83.5104 122.489 85.8426C122.489 87.6366 122.849 89.0718 123.568 90.1482C124.287 91.2246 125.41 91.7628 126.938 91.7628C128.916 91.7628 131.207 90.8658 133.814 89.0718C136.421 87.2778 139.117 84.8559 141.903 81.8062C144.78 78.6667 147.476 75.0338 149.993 70.9076C150.442 70.3694 150.891 70.1003 151.341 70.1003C151.611 70.1003 151.79 70.2797 151.88 70.6385C152.06 70.9973 152.06 71.3561 151.88 71.7149C147.476 78.4424 143.162 83.7795 138.937 87.7263C134.803 91.5834 130.623 93.512 126.399 93.512ZM133.949 54.2235C136.825 52.6089 140.151 50.1421 143.926 46.8233C147.791 43.5044 151.7 39.8267 155.655 35.7902C159.61 31.664 163.25 27.5827 166.576 23.5462C169.991 19.5097 172.643 15.9666 174.53 12.9168C175.519 11.3022 176.238 9.91182 176.687 8.74572C177.137 7.57963 177.362 6.59294 177.362 5.78564C177.362 4.17104 176.643 3.36374 175.204 3.36374C173.317 3.36374 170.8 4.66439 167.654 7.26568C165.407 9.14938 163.295 11.2573 161.318 13.5895C159.34 15.832 157.947 17.4915 157.138 18.5678C153.004 24.0395 149.004 30.0046 145.139 36.4629C141.274 42.8316 137.544 48.7518 133.949 54.2235Z" fill="black"/>
<path d="M174.465 94.1847C172.398 94.1847 170.465 93.6914 168.668 92.7047C166.96 91.718 165.657 90.1034 164.758 87.8609C164.129 86.336 163.814 84.4074 163.814 82.0753C163.814 79.1152 164.353 76.1102 165.432 73.0604C167.05 68.3063 169.342 64.1353 172.308 60.5473C175.274 56.8696 178.555 53.9992 182.15 51.9361C185.835 49.7834 189.52 48.707 193.205 48.707C196.531 48.707 198.958 49.604 200.486 51.3979C202.014 53.1919 202.778 55.4793 202.778 58.26C202.778 59.8746 202.553 61.5789 202.104 63.3729C201.744 65.1669 201.25 66.9608 200.62 68.7548C199.722 71.2664 198.553 73.5538 197.115 75.6169C195.677 77.68 194.464 79.2946 193.475 80.4607C195.452 81.5371 197.475 81.6268 199.542 80.7298C201.699 79.7431 203.676 78.3079 205.474 76.4242C207.272 74.4508 208.71 72.6119 209.788 70.9076C209.968 70.5488 210.193 70.3246 210.462 70.2349C210.822 70.1452 211.047 70.1003 211.137 70.1003C212.035 70.1003 212.215 70.6385 211.676 71.7149C208.71 76.5587 205.429 79.9673 201.834 81.9407C198.239 83.8244 195.048 83.9141 192.262 82.2098L191.992 82.6134C190.644 84.5868 189.161 86.4257 187.543 88.13C185.925 89.7446 184.127 91.0901 182.15 92.1665C180.981 92.7944 179.723 93.2877 178.375 93.6465C177.027 94.0053 175.723 94.1847 174.465 94.1847ZM175.678 91.8974C177.566 91.8974 179.588 91.3143 181.745 90.1482C183.633 89.0718 185.341 87.7263 186.869 86.1117C188.486 84.4971 189.79 82.9722 190.778 81.537C189.79 81.0886 188.936 80.2813 188.217 79.1152C187.498 77.8594 187.138 76.3345 187.138 74.5405C187.138 72.6568 187.498 70.6385 188.217 68.4857C189.026 66.2433 190.104 64.3596 191.453 62.8347C192.891 61.3098 194.464 60.5473 196.171 60.5473C197.25 60.5473 198.104 60.8164 198.733 61.3546C199.452 61.8928 199.812 62.5207 199.812 63.2383C199.991 62.7898 200.126 62.1171 200.216 61.2201C200.396 60.3231 200.486 59.3364 200.486 58.26C200.486 55.9278 200.036 54.2683 199.137 53.2816C198.239 52.2052 197.025 51.667 195.497 51.667C194.868 51.667 194.194 51.7567 193.475 51.9361C192.846 52.1155 192.172 52.3398 191.453 52.6089C188.127 53.9544 184.711 56.466 181.206 60.1437C177.791 63.8214 175.184 67.9027 173.386 72.3877C172.667 74.1817 171.993 76.2896 171.364 78.7115C170.735 81.1334 170.42 83.3759 170.42 85.439C170.42 87.7712 170.915 89.4306 171.903 90.4173C172.982 91.404 174.24 91.8974 175.678 91.8974Z" fill="black"/>
<path d="M238.535 93.6465C236.737 93.6465 235.119 93.1083 233.681 92.0319C232.333 90.9555 231.659 89.4306 231.659 87.4572C231.659 85.2147 232.243 82.7928 233.412 80.1916C234.67 77.5903 236.018 75.2581 237.456 73.195C238.894 71.0422 239.838 69.6518 240.288 69.0239C241.905 66.8711 243.389 64.6735 244.737 62.431C246.175 60.0988 246.894 58.2151 246.894 56.7799C246.894 55.4344 246.31 54.5823 245.141 54.2235C244.153 53.8647 243.119 53.5059 242.04 53.1471C240.962 52.6986 240.153 52.4295 239.614 52.3398C239.344 52.7883 238.715 53.8647 237.726 55.569C236.737 57.1836 235.569 59.0673 234.221 61.2201C232.962 63.2832 231.749 65.3014 230.58 67.2748C229.412 69.2482 228.513 70.7282 227.884 71.7149C227.345 72.3428 226.895 72.6568 226.536 72.6568C226.176 72.6568 225.907 72.4774 225.727 72.1186C225.637 71.7598 225.727 71.3561 225.997 70.9076C228.693 66.6917 231.075 62.745 233.142 59.0673C235.209 55.3896 236.558 53.0574 237.187 52.0707C236.288 51.4428 235.569 50.3664 235.03 48.8415C234.49 47.3166 234.221 45.7469 234.221 44.1323C234.221 42.3383 234.58 40.7237 235.299 39.2885C236.018 37.8533 237.232 37.1357 238.939 37.1357C240.108 37.1357 240.917 37.7187 241.366 38.8848C241.816 39.9612 242.04 41.217 242.04 42.6522C242.04 43.908 241.906 45.119 241.636 46.2851C241.366 47.4512 241.142 48.2585 240.962 48.707L240.018 50.8597C241.097 50.9494 242.714 51.1288 244.872 51.3979C247.029 51.667 249.276 51.981 251.613 52.3398C252.961 52.5192 254.039 53.0125 254.848 53.8198C255.747 54.6271 256.197 55.7035 256.197 57.049C256.197 58.3945 255.747 60.0091 254.848 61.8928C253.95 63.7765 252.422 65.9293 250.264 68.3512C249.186 69.607 247.883 71.2664 246.355 73.3295C244.827 75.3926 243.389 77.4109 242.04 79.3843C240.692 81.268 239.703 82.748 239.074 83.8244C237.906 85.7081 237.322 87.4124 237.322 88.9373C237.322 90.6416 238.265 91.4937 240.153 91.4937C242.22 91.4937 244.422 90.7313 246.759 89.2064C249.096 87.5918 251.388 85.6184 253.635 83.2862C255.882 80.954 257.859 78.6667 259.567 76.4242C261.365 74.092 262.668 72.2531 263.477 70.9076C263.837 70.2797 264.331 69.9658 264.96 69.9658C265.409 69.9658 265.634 70.19 265.634 70.6385C265.634 71.087 265.544 71.4458 265.365 71.7149C264.466 73.0604 262.983 75.0787 260.915 77.7697C258.938 80.4607 256.556 83.1965 253.77 85.9772C250.984 88.6682 247.883 90.7761 244.467 92.301C243.389 92.7495 242.31 93.0635 241.231 93.2429C240.153 93.512 239.254 93.6465 238.535 93.6465Z" fill="black"/>
<path d="M305.315 43.325C304.057 43.325 303.068 42.9213 302.349 42.114C301.72 41.3067 301.405 40.3649 301.405 39.2885C301.405 37.4945 302.034 36.0593 303.293 34.9829C304.551 33.9065 305.899 33.3683 307.337 33.3683C308.596 33.3683 309.584 33.7719 310.303 34.5792C311.023 35.2968 311.382 36.2387 311.382 37.4048C311.382 39.1091 310.753 40.5443 309.495 41.7104C308.236 42.7868 306.843 43.325 305.315 43.325ZM282.935 93.9156C280.508 93.9156 278.441 93.198 276.733 91.7628C275.115 90.2379 274.306 88.0851 274.306 85.3044C274.306 83.8692 274.576 82.2098 275.115 80.3261C275.744 78.3527 276.463 76.5587 277.272 74.9441C278.171 73.2398 278.935 71.8495 279.564 70.7731C280.283 69.6967 280.643 69.1585 280.643 69.1585L293.855 49.6488C294.394 49.2003 295.069 48.9312 295.878 48.8415C296.686 48.6621 297.54 48.5724 298.439 48.5724C299.697 48.5724 300.776 48.707 301.675 48.976C302.574 49.1554 302.933 49.4694 302.753 49.9179L289.406 69.6967C289.136 70.0555 288.238 71.3113 286.71 73.4641C285.272 75.5272 283.878 77.8145 282.53 80.3261C280.822 83.4656 279.969 86.1566 279.969 88.3991C279.969 90.821 281.092 92.0319 283.339 92.0319C284.058 92.0319 284.912 91.8974 285.901 91.6283C286.979 91.2695 288.193 90.7313 289.541 90.0137C295.203 86.8742 301.001 80.5055 306.933 70.9076C307.203 70.4591 307.427 70.2349 307.607 70.2349C307.877 70.1452 308.056 70.1003 308.146 70.1003C308.596 70.1003 308.865 70.2797 308.955 70.6385C309.135 70.9076 309.09 71.2664 308.82 71.7149C305.585 76.6484 302.394 80.9092 299.248 84.4971C296.192 88.0851 292.956 90.6864 289.541 92.301C287.294 93.3774 285.092 93.9156 282.935 93.9156Z" fill="black"/>
<path d="M327.581 93.1083C325.064 93.1083 323.132 92.1665 321.783 90.2828C320.435 88.3094 319.761 85.7978 319.761 82.748C319.761 79.4291 320.66 75.572 322.457 71.1767C323.446 68.7548 324.929 66.2881 326.907 63.7765C328.884 61.1752 331.176 58.7982 333.783 56.6454C336.389 54.4029 339.175 52.6089 342.141 51.2634C345.197 49.8282 348.298 49.1106 351.444 49.1106C353.871 49.1106 355.534 49.7385 356.433 50.9943C357.331 52.2501 357.781 53.775 357.781 55.569C357.781 57.2733 357.511 59.0224 356.972 60.8164L364.522 49.3797C365.151 48.9312 366.544 48.707 368.701 48.707C370.319 48.707 371.847 48.8864 373.285 49.2452C374.813 49.604 375.263 50.1421 374.634 50.8597C373.915 51.7567 372.656 53.1471 370.859 55.0308C369.151 56.8248 367.263 58.9776 365.196 61.4892C363.219 64.0008 361.331 66.6469 359.534 69.4276C358.635 70.9525 357.286 73.195 355.489 76.1551C353.781 79.1152 352.433 81.9407 351.444 84.6317C350.905 86.2463 350.635 87.5469 350.635 88.5336C350.635 90.4173 351.444 91.3592 353.062 91.3592C353.961 91.3592 355.174 91.0452 356.702 90.4173C358.23 89.6997 359.713 88.7579 361.151 87.5918C364.028 85.2596 366.544 82.4789 368.701 79.2497C370.859 75.9308 372.791 73.0156 374.499 70.504C374.589 70.4143 374.679 70.3246 374.768 70.2349C374.948 70.1452 375.218 70.1003 375.577 70.1003C375.937 70.1003 376.207 70.2797 376.386 70.6385C376.566 70.9076 376.476 71.2664 376.117 71.7149C373.6 75.4823 371.128 79.0255 368.701 82.3444C366.275 85.5735 363.803 88.1748 361.286 90.1482C358.77 92.1216 356.028 93.1083 353.062 93.1083C350.725 93.1083 348.838 92.4356 347.4 91.0901C346.051 89.6549 345.377 87.7263 345.377 85.3044C345.377 84.2281 345.467 83.1068 345.647 81.9407C345.917 80.7746 346.231 79.6982 346.591 78.7115C345.153 80.5952 343.355 82.6583 341.198 84.9008C339.13 87.1433 336.928 89.0718 334.591 90.6864C332.255 92.301 329.918 93.1083 327.581 93.1083ZM328.794 90.5519C330.592 90.5519 332.479 89.8343 334.457 88.3991C336.524 86.9639 338.591 85.125 340.658 82.8826C342.726 80.5504 344.613 78.0836 346.321 75.4823C347.759 73.3295 349.152 71.0422 350.5 68.6203C351.939 66.1984 353.107 63.8214 354.006 61.4892C354.995 59.157 355.489 57.049 355.489 55.1653C355.489 52.2949 354.455 50.8597 352.388 50.8597C350.95 50.8597 349.287 51.4876 347.4 52.7434C345.512 53.9992 343.58 55.6138 341.602 57.5872C339.715 59.5606 337.917 61.7134 336.209 64.0456C334.591 66.2881 333.288 68.4857 332.299 70.6385C332.03 71.1767 331.356 72.4774 330.277 74.5405C329.288 76.6036 328.3 78.8461 327.311 81.268C326.412 83.6898 325.963 85.7978 325.963 87.5918C325.963 89.5652 326.907 90.5519 328.794 90.5519Z" fill="black"/>
</svg>
