<svg width="192" height="60" viewBox="0 0 192 60" fill="none" xmlns="http://www.w3.org/2000/svg">
<path d="M6.6497 60C5.64425 60 4.61594 59.8176 3.56479 59.4527C2.55933 59.0878 1.71384 58.5177 1.0283 57.7423C0.342768 56.9669 0 55.9863 0 54.8005C0 54.618 0 54.4128 0 54.1847C0.0457024 53.9567 0.0914048 53.7514 0.137107 53.569C0.365619 52.4287 1.0283 51.4709 2.12516 50.6955C3.26772 49.9658 4.41028 49.6237 5.55284 49.6693C5.96416 48.9852 6.58114 48.6431 7.40379 48.6431C7.99792 48.6431 8.5235 48.8712 8.98052 49.3273C9.16333 49.3729 9.34614 49.3957 9.52895 49.3957C9.75746 49.4413 9.98597 49.4641 10.2145 49.4641C10.5801 49.4641 10.9229 49.4185 11.2428 49.3273C11.5627 49.236 11.7455 49.0764 11.7912 48.8483C11.9283 48.3922 12.0883 48.3694 12.2711 48.7799C12.3625 49.0992 12.3396 49.4641 12.2025 49.8746C12.0654 50.3307 11.6084 50.6043 10.8315 50.6955C10.4658 50.6955 10.0545 50.5815 9.5975 50.3535L9.66606 50.4903C9.75746 50.8552 9.80316 51.1517 9.80316 51.3797C9.80316 51.6534 9.78031 51.927 9.73461 52.2007C9.68891 52.4743 9.66606 52.7252 9.66606 52.9533C9.66606 53.4094 9.82601 53.797 10.1459 54.1163C10.4658 54.4356 10.8086 54.5496 11.1742 54.4584C10.8086 55.0969 10.283 55.4162 9.5975 55.4162C9.04907 55.4162 8.5235 55.1881 8.02077 54.732C7.56375 54.3215 7.31238 53.7742 7.26668 53.0901C7.22098 52.1779 7.08387 51.4709 6.85536 50.9692C6.67255 50.5131 6.28408 50.2395 5.68995 50.1482H5.62139C4.75305 50.1026 3.8847 50.4447 3.01636 51.1745C2.14801 51.9498 1.59958 52.8164 1.37107 53.7742C1.32537 53.9567 1.27967 54.1391 1.23396 54.3216C1.23396 54.5496 1.23396 54.7548 1.23396 54.9373C1.23396 56.2144 1.73669 57.2178 2.74214 57.9475C3.7476 58.6773 4.89016 59.0422 6.16982 59.0422C8.22643 59.0422 10.3973 58.2668 12.6824 56.7161C14.9675 55.1653 17.2984 53.1129 19.6749 50.5587C22.0514 48.0046 24.4051 45.1767 26.7359 42.0753C29.1124 38.9738 31.3518 35.8723 33.4541 32.7708H24.5422C20.9317 32.7708 18.281 33.5234 16.59 35.0285C14.899 36.5336 14.0535 38.2212 14.0535 40.0912C14.0535 41.0946 14.282 42.0753 14.739 43.0331C15.196 43.9453 15.8587 44.7662 16.7271 45.496L16.5214 45.7697C15.8359 45.5416 15.1503 45.0855 14.4648 44.4014C13.825 43.7172 13.2994 42.919 12.8881 42.0068C12.4768 41.0946 12.2711 40.2281 12.2711 39.4071C12.2711 37.3546 13.3222 35.5758 15.4246 34.0707C17.5726 32.5656 20.6118 31.813 24.5422 31.813H26.7359C26.1418 31.6306 25.5476 31.3341 24.9535 30.9236C24.4051 30.4675 24.1309 29.943 24.1309 29.3501C24.1309 28.8483 24.3137 28.3922 24.6793 27.9818C25.0449 27.5713 25.4105 27.3432 25.7761 27.2976H25.9818C26.1646 27.2976 26.256 27.3432 26.256 27.4344C26.256 27.5713 26.1418 27.7537 25.9133 27.9818C25.7761 28.1186 25.7076 28.301 25.7076 28.5291C25.7076 29.0764 25.9818 29.6693 26.5302 30.3079C27.0787 30.9464 27.5585 31.3797 27.9699 31.6078C28.3355 31.6534 28.564 31.7218 28.6554 31.813H34.1397C34.6881 31.0376 35.2137 30.2395 35.7164 29.4185C36.2648 28.5975 36.7904 27.8221 37.2931 27.0924C38.2986 25.5872 39.4869 23.9681 40.8579 22.2349C42.229 20.5017 43.7372 18.7685 45.3825 17.0353C47.0278 15.2566 48.7188 13.6602 50.4554 12.2463C47.5305 11.6078 44.4913 10.9236 41.3378 10.1938C38.1843 9.46408 35.0537 8.84835 31.946 8.34664C28.8839 7.79932 25.9361 7.52566 23.1026 7.52566C20.4975 7.52566 18.0524 7.82212 15.7673 8.41505C13.5279 9.00798 11.5399 10.057 9.80316 11.5621C8.24928 12.9761 7.06102 14.504 6.23838 16.146C5.46144 17.7423 5.07297 19.3158 5.07297 20.8666C5.07297 23.0103 5.84991 24.8347 7.40379 26.3398C8.95767 27.8449 11.2885 28.5063 14.3963 28.3238C14.3506 28.2326 14.3277 28.1186 14.3277 27.9818C14.3277 27.8449 14.3277 27.7309 14.3277 27.6397C14.3277 26.4994 14.7847 25.5872 15.6988 24.9031C16.3386 24.447 16.9099 24.1505 17.4126 24.0137C17.9153 23.8769 18.3952 23.7856 18.8522 23.74C19.355 23.6488 19.8805 23.3979 20.429 22.9875C21.0231 22.577 21.3202 22.0753 21.3202 21.4823C21.3202 21.3911 21.2745 21.2087 21.1831 20.935C21.2745 20.935 21.4116 20.9578 21.5944 21.0034C21.8229 21.049 22.0286 21.2543 22.2114 21.6192C22.3485 21.8016 22.4399 22.0296 22.4856 22.3033C22.5313 22.577 22.5541 22.8506 22.5541 23.1243C22.5541 24.0821 22.2799 25.1311 21.7315 26.2714C21.2288 27.366 20.6575 28.2098 20.0176 28.8027C19.5606 29.2132 19.0579 29.5097 18.5095 29.6921C18.0067 29.8746 17.504 29.9658 17.0013 29.9658C16.0872 29.9658 15.4246 29.7377 15.0132 29.2816C14.8304 29.0992 14.7162 28.9624 14.6705 28.8712C12.2939 29.008 10.2373 28.7571 8.50064 28.1186C6.76395 27.4344 5.34718 26.5222 4.25032 25.382C4.34173 25.6556 4.41028 25.9293 4.45598 26.203C4.50169 26.4766 4.52454 26.7731 4.52454 27.0924C4.52454 27.5485 4.45598 28.0274 4.31888 28.5291C4.63879 28.7115 4.8673 28.9624 5.00441 29.2816C5.14152 29.5553 5.21007 29.8518 5.21007 30.171C5.21007 30.6728 5.09582 31.1745 4.8673 31.6762C4.68449 32.1323 4.45598 32.52 4.18177 32.8392C3.86185 33.1585 3.31342 33.6146 2.53648 34.2075C1.75954 34.7548 0.982601 34.9601 0.205661 34.8233C0.342768 34.6408 0.616982 34.2987 1.0283 33.797C1.43963 33.2953 1.64529 32.6112 1.64529 31.7446C1.64529 31.3341 1.57673 30.9008 1.43963 30.4447C1.25682 29.6693 1.46248 29.0992 2.05661 28.7343C2.65074 28.3694 3.19917 28.2326 3.70189 28.3238C3.7476 28.0958 3.77045 27.8905 3.77045 27.7081C3.81615 27.48 3.839 27.2748 3.839 27.0924C3.839 26.2714 3.65619 25.382 3.29057 24.4242C3.24487 24.333 3.22202 24.2189 3.22202 24.0821C2.12516 22.4401 1.57673 20.5929 1.57673 18.5405C1.57673 16.488 2.17086 14.4584 3.35913 12.4515C4.54739 10.3991 6.35263 8.68871 8.77486 7.32041C10.4201 6.3626 12.2025 5.70126 14.122 5.33637C16.0415 4.92588 18.0524 4.72064 20.1548 4.72064C23.4453 4.72064 26.8959 5.08552 30.5063 5.81528C34.1168 6.54504 37.7045 7.41163 41.2693 8.41505C44.8797 9.41847 48.3303 10.3535 51.6208 11.2201C53.4489 9.76055 55.1628 8.75713 56.7624 8.20981C58.362 7.66249 59.7787 7.38883 61.0127 7.38883C61.5154 7.38883 61.9724 7.43444 62.3838 7.52566C62.8408 7.57127 63.2521 7.63968 63.6177 7.7309C64.6232 8.00456 65.4001 8.46066 65.9485 9.0992C66.497 9.69213 66.7712 10.3079 66.7712 10.9464C66.7712 11.7674 66.3142 12.4972 65.4001 13.1357C64.5318 13.7742 63.115 14.0935 61.1498 14.0935C60.3272 14.0935 59.3903 14.0251 58.3391 13.8883C57.3337 13.7514 56.3053 13.569 55.2542 13.3409C54.2487 13.0673 53.1519 12.8164 51.9636 12.5884C50.5468 13.7742 49.0387 15.439 47.4391 17.5827C45.8395 19.6807 44.2171 21.984 42.5718 24.4926C40.9722 27.0011 39.4412 29.4413 37.9787 31.813H43.1202C45.2682 31.813 46.9592 31.7218 48.1932 31.5393C49.4728 31.3113 50.2726 30.8324 50.5925 30.1026L51.141 30.3079C50.7754 31.1745 49.9984 31.7902 48.8102 32.1551C48.8102 32.2007 48.7416 32.2235 48.6045 32.2235C47.8276 32.4059 47.0735 32.7252 46.3422 33.1813C45.611 33.5918 44.994 34.0479 44.4913 34.5496C44.9483 34.7777 45.2911 35.1425 45.5196 35.6442C45.7481 36.1003 45.8623 36.5793 45.8623 37.081C45.8623 37.4458 45.7938 37.8107 45.6567 38.1756C45.4282 38.8141 45.154 39.3158 44.834 39.6807C44.5141 40.0456 44.1942 40.3649 43.8743 40.6385C43.6458 40.8666 43.4173 41.1859 43.1888 41.5964C43.006 42.0068 42.9145 42.3945 42.9145 42.7594C42.9145 43.3067 43.1202 43.7172 43.5315 43.9909C43.3944 44.1277 43.2345 44.1961 43.0516 44.1961C42.1833 44.1961 41.4978 43.6032 40.995 42.4173C40.538 41.1859 40.3095 39.9772 40.3095 38.7913C40.3095 37.3774 40.7208 36.26 41.5435 35.439C42.3661 34.618 43.1431 34.2531 43.8743 34.3444C44.4684 33.6146 44.9712 33.0673 45.3825 32.7024C44.6512 32.748 43.8743 32.7708 43.0516 32.7708C42.229 32.7708 41.3607 32.7708 40.4466 32.7708H37.3617C36.7219 33.8654 36.082 34.9145 35.4422 35.9179C34.8481 36.8757 34.2768 37.7879 33.7284 38.6545C29.5694 45.2224 25.2277 50.4219 20.7032 54.2531C16.2243 58.0844 11.5399 60 6.6497 60ZM60.807 13.1357C62.1324 13.1357 63.0464 12.9076 63.5492 12.4515C64.0976 11.9498 64.3718 11.4025 64.3718 10.8096C64.3718 9.89738 63.9376 9.28164 63.0693 8.96237C62.2467 8.59749 61.424 8.41505 60.6014 8.41505C59.2303 8.41505 57.9049 8.75713 56.6253 9.44128C55.3456 10.0798 54.1116 10.7868 52.9234 11.5621C53.5632 11.699 54.4087 11.9042 55.4599 12.1779C56.5567 12.4515 57.6764 12.7024 58.819 12.9304C59.5959 13.0673 60.2586 13.1357 60.807 13.1357Z" fill="white"/>
<path d="M64.2706 47.5485C64.0878 47.5485 63.8821 47.5257 63.6536 47.48C63.4251 47.48 63.1966 47.4572 62.9681 47.4116C61.6427 47.0924 60.683 46.4994 60.0888 45.6328C59.5404 44.7206 59.2662 43.626 59.2662 42.3489C59.2662 41.3455 59.4033 40.2737 59.6775 39.1334C59.9974 37.9475 60.3859 36.7161 60.8429 35.439C61.6199 33.4322 62.5796 31.2201 63.7222 28.8027C64.9104 26.3398 66.2358 23.8312 67.6983 21.2771C69.2065 18.6773 70.7832 16.1688 72.4285 13.7514C74.1195 11.3341 75.8561 9.14481 77.6385 7.18358C78.6897 5.99772 79.7409 4.92588 80.792 3.96807C81.8889 3.01026 82.9629 2.23489 84.014 1.64196C85.7964 0.54732 87.4417 0 88.9499 0C89.8639 0 90.5723 0.22805 91.0751 0.68415C91.6235 1.09464 91.8977 1.75599 91.8977 2.66819C91.8977 3.26112 91.7606 3.94527 91.4864 4.72064C91.2579 5.4504 90.8465 6.29419 90.2524 7.252C89.1098 9.16762 87.6245 11.1745 85.7964 13.2725C84.014 15.3706 82.0717 17.423 79.9694 19.4299C77.8671 21.3911 75.7419 23.1927 73.5939 24.8347C71.4916 26.4766 69.5035 27.8221 67.6297 28.8712C66.7157 30.5131 65.8473 32.2691 65.0247 34.1391C64.202 35.9635 63.5394 37.7195 63.0366 39.4071C62.5339 41.049 62.2825 42.4629 62.2825 43.6488C62.2825 44.561 62.4653 45.2908 62.831 45.8381C63.1966 46.3854 63.7679 46.6591 64.5448 46.6591C65.5503 46.6591 66.7157 46.203 68.041 45.2908C69.3664 44.3786 70.7375 43.1471 72.1543 41.5964C73.6167 40 74.9878 38.1528 76.2675 36.0547C76.496 35.7811 76.7245 35.6442 76.953 35.6442C77.0901 35.6442 77.1815 35.7355 77.2272 35.9179C77.3186 36.1003 77.3186 36.2828 77.2272 36.4652C74.9878 39.886 72.7941 42.5998 70.6461 44.6066C68.5438 46.5678 66.4186 47.5485 64.2706 47.5485ZM68.1096 27.5713C69.5721 26.7503 71.2631 25.496 73.1826 23.8084C75.1478 22.1209 77.1358 20.2509 79.1467 18.1984C81.1576 16.1003 83.0086 14.0251 84.6996 11.9726C86.4363 9.92018 87.7845 8.11859 88.7442 6.56785C89.2469 5.74686 89.6126 5.03991 89.8411 4.44698C90.0696 3.85405 90.1839 3.35234 90.1839 2.94185C90.1839 2.12087 89.8182 1.71038 89.087 1.71038C88.1272 1.71038 86.8476 2.37172 85.248 3.69441C84.1054 4.65223 83.0314 5.72406 82.026 6.90992C81.0205 8.05017 80.3121 8.89396 79.9008 9.44128C77.7985 12.2235 75.7647 15.2566 73.7995 18.5405C71.8343 21.7788 69.9377 24.7891 68.1096 27.5713Z" fill="white"/>
<path d="M88.711 47.8905C87.6599 47.8905 86.6773 47.6397 85.7632 47.138C84.8949 46.6363 84.2322 45.8153 83.7752 44.675C83.4552 43.8997 83.2953 42.919 83.2953 41.7332C83.2953 40.2281 83.5695 38.7001 84.1179 37.1494C84.9406 34.732 86.106 32.6112 87.6142 30.7868C89.1223 28.9168 90.7905 27.4572 92.6186 26.4082C94.4924 25.3136 96.3662 24.7663 98.24 24.7663C99.9309 24.7663 101.165 25.2224 101.942 26.1346C102.719 27.0468 103.107 28.2098 103.107 29.6237C103.107 30.4447 102.993 31.3113 102.764 32.2235C102.582 33.1357 102.33 34.0479 102.01 34.9601C101.553 36.2372 100.959 37.4002 100.228 38.4493C99.4968 39.4983 98.8798 40.3193 98.3771 40.9122C99.3825 41.4595 100.411 41.5051 101.462 41.049C102.559 40.5473 103.564 39.8176 104.478 38.8597C105.392 37.8563 106.124 36.9213 106.672 36.0547C106.763 35.8723 106.878 35.7583 107.015 35.7127C107.198 35.667 107.312 35.6442 107.358 35.6442C107.815 35.6442 107.906 35.9179 107.632 36.4652C106.124 38.9282 104.455 40.6613 102.627 41.6648C100.799 42.6226 99.1769 42.6682 97.7601 41.8016L97.623 42.0068C96.9374 43.0103 96.1834 43.9453 95.3607 44.8119C94.5381 45.6328 93.624 46.317 92.6186 46.8643C92.0244 47.1836 91.3846 47.4344 90.6991 47.6169C90.0135 47.7993 89.3509 47.8905 88.711 47.8905ZM89.328 46.7275C90.2878 46.7275 91.3161 46.431 92.4129 45.8381C93.3727 45.2908 94.241 44.6066 95.0179 43.7856C95.8406 42.9646 96.5033 42.1893 97.006 41.4595C96.5033 41.2315 96.0691 40.821 95.7035 40.2281C95.3379 39.5895 95.1551 38.8141 95.1551 37.9019C95.1551 36.9441 95.3379 35.9179 95.7035 34.8233C96.1148 33.683 96.6632 32.7252 97.3488 31.9498C98.08 31.1745 98.8798 30.7868 99.7481 30.7868C100.297 30.7868 100.731 30.9236 101.051 31.1973C101.416 31.4709 101.599 31.7902 101.599 32.1551C101.69 31.927 101.759 31.5849 101.805 31.1288C101.896 30.6727 101.942 30.171 101.942 29.6237C101.942 28.4379 101.713 27.5941 101.256 27.0924C100.799 26.545 100.182 26.2714 99.4054 26.2714C99.0855 26.2714 98.7427 26.317 98.3771 26.4082C98.0572 26.4994 97.7144 26.6135 97.3488 26.7503C95.6578 27.4344 93.9211 28.7115 92.1387 30.5815C90.402 32.4515 89.0766 34.5268 88.1626 36.8073C87.797 37.7195 87.4542 38.7913 87.1343 40.0228C86.8144 41.2543 86.6544 42.3945 86.6544 43.4436C86.6544 44.6294 86.9058 45.4732 87.4085 45.9749C87.9569 46.4766 88.5968 46.7275 89.328 46.7275Z" fill="white"/>
<path d="M121.289 47.6169C120.375 47.6169 119.552 47.3432 118.821 46.7959C118.135 46.2486 117.793 45.4732 117.793 44.4698C117.793 43.3295 118.09 42.0981 118.684 40.7754C119.324 39.4527 120.009 38.2668 120.741 37.2178C121.472 36.1231 121.952 35.4162 122.18 35.0969C123.003 34.0023 123.757 32.8848 124.442 31.7446C125.174 30.5587 125.539 29.6009 125.539 28.8712C125.539 28.187 125.242 27.7537 124.648 27.5713C124.145 27.3888 123.62 27.2064 123.071 27.0239C122.523 26.7959 122.112 26.6591 121.837 26.6135C121.7 26.8415 121.38 27.3888 120.878 28.2554C120.375 29.0764 119.781 30.0342 119.095 31.1288C118.455 32.1779 117.838 33.2041 117.244 34.2075C116.65 35.2109 116.193 35.9635 115.873 36.4652C115.599 36.7845 115.37 36.9441 115.188 36.9441C115.005 36.9441 114.868 36.8529 114.776 36.6705C114.731 36.488 114.776 36.2828 114.913 36.0547C116.285 33.9111 117.496 31.9042 118.547 30.0342C119.598 28.1642 120.284 26.9783 120.603 26.4766C120.146 26.1574 119.781 25.61 119.507 24.8347C119.232 24.0593 119.095 23.2611 119.095 22.4401C119.095 21.5279 119.278 20.707 119.644 19.9772C120.009 19.2474 120.626 18.8826 121.495 18.8826C122.089 18.8826 122.5 19.179 122.729 19.772C122.957 20.3193 123.071 20.9578 123.071 21.6876C123.071 22.3261 123.003 22.9418 122.866 23.5348C122.729 24.1277 122.614 24.5382 122.523 24.7663L122.043 25.8609C122.591 25.9065 123.414 25.9977 124.511 26.1346C125.608 26.2714 126.75 26.431 127.939 26.6135C128.624 26.7047 129.173 26.9555 129.584 27.366C130.041 27.7765 130.269 28.3238 130.269 29.008C130.269 29.6921 130.041 30.5131 129.584 31.4709C129.127 32.4287 128.35 33.5234 127.253 34.7548C126.705 35.3934 126.042 36.2372 125.265 37.2862C124.488 38.3352 123.757 39.3615 123.071 40.3649C122.386 41.3227 121.883 42.0753 121.563 42.6226C120.969 43.5804 120.672 44.447 120.672 45.2224C120.672 46.0889 121.152 46.5222 122.112 46.5222C123.163 46.5222 124.282 46.1345 125.471 45.3592C126.659 44.5382 127.824 43.5348 128.967 42.3489C130.11 41.1631 131.115 40 131.983 38.8597C132.897 37.6739 133.56 36.7389 133.971 36.0547C134.154 35.7355 134.406 35.5758 134.725 35.5758C134.954 35.5758 135.068 35.6898 135.068 35.9179C135.068 36.146 135.023 36.3284 134.931 36.4652C134.474 37.1494 133.72 38.1756 132.669 39.5439C131.663 40.9122 130.452 42.3033 129.036 43.7172C127.619 45.0855 126.042 46.1574 124.305 46.9327C123.757 47.1608 123.208 47.3204 122.66 47.4116C122.112 47.5485 121.655 47.6169 121.289 47.6169Z" fill="white"/>
<path d="M155.245 22.0296C154.605 22.0296 154.102 21.8244 153.737 21.4139C153.417 21.0034 153.257 20.5245 153.257 19.9772C153.257 19.065 153.577 18.3352 154.217 17.7879C154.856 17.2406 155.542 16.9669 156.273 16.9669C156.913 16.9669 157.416 17.1722 157.781 17.5827C158.147 17.9475 158.33 18.4265 158.33 19.0194C158.33 19.886 158.01 20.6157 157.37 21.2087C156.73 21.756 156.022 22.0296 155.245 22.0296ZM143.865 47.7537C142.631 47.7537 141.58 47.3888 140.712 46.6591C139.889 45.8837 139.478 44.7891 139.478 43.3751C139.478 42.6454 139.615 41.8016 139.889 40.8438C140.209 39.8404 140.574 38.9282 140.986 38.1072C141.443 37.2406 141.831 36.5336 142.151 35.9863C142.517 35.439 142.7 35.1653 142.7 35.1653L149.418 25.2452C149.692 25.0171 150.035 24.8803 150.446 24.8347C150.858 24.7434 151.292 24.6978 151.749 24.6978C152.389 24.6978 152.937 24.7662 153.394 24.9031C153.851 24.9943 154.034 25.1539 153.942 25.382L147.156 35.439C147.019 35.6214 146.561 36.26 145.785 37.3546C145.053 38.4036 144.345 39.5667 143.659 40.8438C142.791 42.4401 142.357 43.8084 142.357 44.9487C142.357 46.1802 142.928 46.7959 144.071 46.7959C144.436 46.7959 144.87 46.7275 145.373 46.5907C145.922 46.4082 146.539 46.1346 147.224 45.7697C150.103 44.1733 153.051 40.935 156.068 36.0547C156.205 35.8267 156.319 35.7127 156.41 35.7127C156.547 35.667 156.639 35.6442 156.685 35.6442C156.913 35.6442 157.05 35.7355 157.096 35.9179C157.187 36.0547 157.164 36.2372 157.027 36.4652C155.382 38.9738 153.76 41.1403 152.16 42.9647C150.606 44.7891 148.961 46.1117 147.224 46.9327C146.082 47.48 144.962 47.7537 143.865 47.7537Z" fill="white"/>
<path d="M166.566 47.3432C165.287 47.3432 164.304 46.8643 163.619 45.9065C162.933 44.9031 162.59 43.626 162.59 42.0753C162.59 40.3877 163.047 38.4265 163.961 36.1916C164.464 34.9601 165.218 33.7058 166.224 32.4287C167.229 31.106 168.395 29.8974 169.72 28.8027C171.045 27.6625 172.462 26.7503 173.97 26.0661C175.524 25.3364 177.101 24.9715 178.7 24.9715C179.934 24.9715 180.78 25.2908 181.237 25.9293C181.694 26.5678 181.922 27.3432 181.922 28.2554C181.922 29.122 181.785 30.0114 181.511 30.9236L185.35 25.1083C185.67 24.8803 186.378 24.7663 187.475 24.7663C188.298 24.7663 189.075 24.8575 189.806 25.0399C190.583 25.2223 190.812 25.496 190.492 25.8609C190.126 26.317 189.486 27.0239 188.572 27.9818C187.704 28.894 186.744 29.9886 185.693 31.2657C184.687 32.5428 183.728 33.8883 182.814 35.3022C182.357 36.0775 181.671 37.2178 180.757 38.7229C179.889 40.2281 179.203 41.6648 178.7 43.0331C178.426 43.854 178.289 44.5154 178.289 45.0171C178.289 45.9749 178.7 46.4538 179.523 46.4538C179.98 46.4538 180.597 46.2942 181.374 45.9749C182.151 45.61 182.905 45.1311 183.636 44.5382C185.099 43.3523 186.378 41.9384 187.475 40.2965C188.572 38.6089 189.555 37.1266 190.423 35.8495C190.469 35.8039 190.515 35.7583 190.56 35.7127C190.652 35.667 190.789 35.6442 190.972 35.6442C191.154 35.6442 191.291 35.7355 191.383 35.9179C191.474 36.0547 191.429 36.2372 191.246 36.4652C189.966 38.3808 188.709 40.1824 187.475 41.87C186.241 43.512 184.985 44.8347 183.705 45.8381C182.425 46.8415 181.031 47.3432 179.523 47.3432C178.335 47.3432 177.375 47.0011 176.644 46.317C175.958 45.5872 175.616 44.6066 175.616 43.3751C175.616 42.8278 175.661 42.2577 175.753 41.6648C175.89 41.0718 176.05 40.5245 176.233 40.0228C175.501 40.9806 174.587 42.0296 173.49 43.1699C172.439 44.3101 171.32 45.2908 170.131 46.1117C168.943 46.9327 167.755 47.3432 166.566 47.3432ZM167.183 46.0433C168.097 46.0433 169.057 45.6785 170.063 44.9487C171.114 44.2189 172.165 43.2839 173.216 42.1437C174.267 40.9578 175.227 39.7035 176.095 38.3808C176.827 37.2862 177.535 36.1231 178.221 34.8917C178.952 33.6602 179.546 32.4515 180.003 31.2657C180.506 30.0798 180.757 29.008 180.757 28.0502C180.757 26.5906 180.231 25.8609 179.18 25.8609C178.449 25.8609 177.604 26.1802 176.644 26.8187C175.684 27.4572 174.701 28.2782 173.696 29.2816C172.736 30.2851 171.822 31.3797 170.954 32.5656C170.131 33.7058 169.469 34.8233 168.966 35.9179C168.829 36.1916 168.486 36.8529 167.938 37.9019C167.435 38.951 166.932 40.0912 166.429 41.3227C165.972 42.5542 165.744 43.626 165.744 44.5382C165.744 45.5416 166.224 46.0433 167.183 46.0433Z" fill="white"/>
</svg>
