<svg width="28" height="24" viewBox="0 0 28 24" fill="none" xmlns="http://www.w3.org/2000/svg">
<path d="M1.03996 10.6573C0.990715 10.4607 0.986932 10.2555 1.0289 10.0572C1.07088 9.85893 1.1575 9.67283 1.28219 9.51305C1.40687 9.35327 1.56635 9.22402 1.74848 9.13512C1.93062 9.04621 2.13062 9.00001 2.3333 9H25.5866C25.7892 9.00006 25.989 9.04625 26.171 9.13507C26.353 9.2239 26.5124 9.35302 26.6371 9.51264C26.7618 9.67226 26.8484 9.85818 26.8905 10.0563C26.9326 10.2544 26.929 10.4595 26.88 10.656L24.4653 20.3133C24.3211 20.8902 23.9882 21.4024 23.5195 21.7684C23.0508 22.1344 22.4733 22.3332 21.8786 22.3333H6.0413C5.44664 22.3332 4.86908 22.1344 4.4004 21.7684C3.93173 21.4024 3.59883 20.8902 3.45463 20.3133L1.03996 10.6573Z" stroke="black" stroke-width="2" stroke-linejoin="round"/>
<path d="M9.95996 14.3333V17M17.96 14.3333V17M5.95996 9L11.2933 1M21.96 9L16.6266 1" stroke="black" stroke-width="2" stroke-linecap="round"/>
</svg>
