<svg xmlns="http://www.w3.org/2000/svg" style="display: none">

  <symbol id="cancel" viewBox="0 0 16 16">
    <path
      d="M12.6667 4.27333L11.7267 3.33333L8 7.06L4.27333 3.33333L3.33333 4.27333L7.06 8L3.33333 11.7267L4.27333 12.6667L8 8.94L11.7267 12.6667L12.6667 11.7267L8.94 8L12.6667 4.27333Z"
      fill="currentColor" />
  </symbol>

  <symbol id="arrow" viewBox="0 0 24 24">
    <path d="M7.41 8.59L12 13.17L16.59 8.59L18 10L12 16L6 10L7.41 8.59Z" fill="currentColor" />
  </symbol>

  <symbol id="active-no" viewBox="0 0 24 24">
    <path 
      d="M16.5 3C14.76 3 13.09 3.81 12 5.09C10.91 3.81 9.24 3 7.5 3C4.42 3 2 5.42 2 8.5C2 12.28 5.4 15.36 10.55 20.04L12 21.35L13.45 20.03C18.6 15.36 22 12.28 22 8.5C22 5.42 19.58 3 16.5 3ZM12.1 18.55L12 18.65L11.9 18.55C7.14 14.24 4 11.39 4 8.5C4 6.5 5.5 5 7.5 5C9.04 5 10.54 5.99 11.07 7.36H12.94C13.46 5.99 14.96 5 16.5 5C18.5 5 20 6.5 20 8.5C20 11.39 16.86 14.24 12.1 18.55Z" 
      fill="currentColor" 
    />
  </symbol>

  <symbol id="active-yes" viewBox="0 0 24 24">
    <path 
      d="M12 21.35L10.55 20.03C5.4 15.36 2 12.28 2 8.5C2 5.42 4.42 3 7.5 3C9.24 3 10.91 3.81 12 5.09C13.09 3.81 14.76 3 16.5 3C19.58 3 22 5.42 22 8.5C22 12.28 18.6 15.36 13.45 20.04L12 21.35Z" 
      fill="currentColor" 
    />
  </symbol>

  <symbol id="add" viewBox="0 0 24 24">
    <path 
      d="M19 13H13V19H11V13H5V11H11V5H13V11H19V13Z" 
      fill="currentColor" 
    />
  </symbol>

  <symbol id="apple" viewBox="0 0 24 24">
    <path 
      d="M17.0499 20.28C16.0699 21.23 14.9999 21.08 13.9699 20.63C12.8799 20.17 11.8799 20.15 10.7299 20.63C9.28992 21.25 8.52992 21.07 7.66992 20.28C2.78992 15.25 3.50992 7.59 9.04992 7.31C10.3999 7.38 11.3399 8.05 12.1299 8.11C13.3099 7.87 14.4399 7.18 15.6999 7.27C17.2099 7.39 18.3499 7.99 19.0999 9.07C15.9799 10.94 16.7199 15.05 19.5799 16.2C19.0099 17.7 18.2699 19.19 17.0399 20.29L17.0499 20.28ZM12.0299 7.25C11.8799 5.02 13.6899 3.18 15.7699 3C16.0599 5.58 13.4299 7.5 12.0299 7.25Z" 
      fill="currentColor" 
    />
  </symbol>

  <symbol id="arrow-drop-down" viewBox="0 0 24 24">
    <path 
      d="M7 10L12 15L17 10H7Z" 
      fill="currentColor" 
    />
  </symbol>

  <symbol id="arrow-drop-up" viewBox="0 0 24 24">
    <path 
      d="M7 14L12 9L17 14H7Z" 
      fill="currentColor" 
    />
  </symbol>

  <symbol id="arrow-left" viewBox="0 0 24 24">
    <path 
      d="M21 11H6.83L10.41 7.41L9 6L3 12L9 18L10.41 16.59L6.83 13H21V11Z" 
      fill="currentColor" 
    />
  </symbol>

  <symbol id="arrow-right" viewBox="0 0 24 24">
    <path 
      d="M3 11H17.17L13.59 7.41L15 6L21 12L15 18L13.59 16.59L17.17 13H3V11Z" 
      fill="currentColor" 
    />
  </symbol>

  <symbol id="calendar" viewBox="0 0 24 24">
    <path 
      d="M20 3H19V1H17V3H7V1H5V3H4C2.9 3 2 3.9 2 5V21C2 22.1 2.9 23 4 23H20C21.1 23 22 22.1 22 21V5C22 3.9 21.1 3 20 3ZM20 21H4V10H20V21ZM20 8H4V5H20V8Z" 
      fill="currentColor" 
    />
  </symbol>

  <symbol id="card" viewBox="0 0 24 24">
    <path 
      d="M20 4H4C2.89 4 2.01 4.89 2.01 6L2 18C2 19.11 2.89 20 4 20H20C21.11 20 22 19.11 22 18V6C22 4.89 21.11 4 20 4ZM20 18H4V12H20V18ZM20 8H4V6H20V8Z" 
      fill="currentColor" 
    />
  </symbol>

  <symbol id="chevron-down" viewBox="0 0 24 24">
    <path 
      d="M7.41 8.59L12 13.17L16.59 8.59L18 10L12 16L6 10L7.41 8.59Z" 
      fill="currentColor" 
    />
  </symbol>

  <symbol id="chevron-up" viewBox="0 0 24 24">
    <path 
      d="M7.41 15.41L12 10.83L16.59 15.41L18 14L12 8L6 14L7.41 15.41Z" 
      fill="currentColor" 
    />
  </symbol>

  <symbol id="facebook" viewBox="0 0 24 24">
    <path 
      fill-rule="evenodd" 
      clip-rule="evenodd" 
      d="M10.488 3.788C11.4724 2.8034 12.8077 2.25016 14.2 2.25H16.9C17.0989 2.25 17.2897 2.32902 17.4303 2.46967C17.571 2.61032 17.65 2.80109 17.65 3V6.6C17.65 6.79891 17.571 6.98968 17.4303 7.13033C17.2897 7.27098 17.0989 7.35 16.9 7.35H14.2C14.1803 7.35 14.1608 7.35388 14.1426 7.36142C14.1244 7.36896 14.1079 7.38 14.0939 7.39393C14.08 7.40786 14.069 7.4244 14.0614 7.4426C14.0539 7.4608 14.05 7.4803 14.05 7.5V9.45H16.9C17.014 9.44994 17.1266 9.47587 17.229 9.52583C17.3315 9.57579 17.4213 9.64846 17.4915 9.73832C17.5617 9.82817 17.6104 9.93285 17.6341 10.0444C17.6578 10.1559 17.6557 10.2714 17.628 10.382L16.728 13.982C16.6874 14.1443 16.5937 14.2884 16.4618 14.3913C16.3299 14.4942 16.1673 14.5501 16 14.55H14.05V21C14.05 21.1989 13.971 21.3897 13.8303 21.5303C13.6897 21.671 13.4989 21.75 13.3 21.75H9.7C9.50109 21.75 9.31032 21.671 9.16967 21.5303C9.02902 21.3897 8.95 21.1989 8.95 21V14.55H7C6.80109 14.55 6.61032 14.471 6.46967 14.3303C6.32902 14.1897 6.25 13.9989 6.25 13.8V10.2C6.25 10.1015 6.2694 10.004 6.30709 9.91299C6.34478 9.82199 6.40003 9.73931 6.46967 9.66967C6.53931 9.60003 6.62199 9.54478 6.71299 9.50709C6.80398 9.4694 6.90151 9.45 7 9.45H8.95V7.5C8.95016 6.10768 9.5034 4.77244 10.488 3.788ZM14.2 3.75C13.2054 3.75 12.2516 4.14509 11.5483 4.84835C10.8451 5.55161 10.45 6.50544 10.45 7.5V10.2C10.45 10.3989 10.371 10.5897 10.2303 10.7303C10.0897 10.871 9.89891 10.95 9.7 10.95H7.75V13.05H9.7C9.89891 13.05 10.0897 13.129 10.2303 13.2697C10.371 13.4103 10.45 13.6011 10.45 13.8V20.25H12.55V13.8C12.55 13.6011 12.629 13.4103 12.7697 13.2697C12.9103 13.129 13.1011 13.05 13.3 13.05H15.414L15.939 10.95H13.3C13.1011 10.95 12.9103 10.871 12.7697 10.7303C12.629 10.5897 12.55 10.3989 12.55 10.2V7.5C12.55 7.06239 12.7238 6.64271 13.0333 6.33327C13.3427 6.02384 13.7624 5.85 14.2 5.85H16.15V3.75H14.2Z" 
      fill="currentColor" 
    />
  </symbol>

  <symbol id="file-upload" viewBox="0 0 24 24">
    <path 
      d="M18 15V18H6V15H4V18C4 19.1 4.9 20 6 20H18C19.1 20 20 19.1 20 18V15H18ZM7 9L8.41 10.41L11 7.83V16H13V7.83L15.59 10.41L17 9L12 4L7 9Z" 
      fill="currentColor" 
    />
  </symbol>

  <symbol id="google" viewBox="0 0 24 24">
    <path d="M21.8055 10.0415H21V10H12V14H17.6515C16.827 16.3285 14.6115 18 12 18C8.6865 18 6 15.3135 6 12C6 8.6865 8.6865 6 12 6C13.5295 6 14.921 6.577 15.9805 7.5195L18.809 4.691C17.023 3.0265 14.634 2 12 2C6.4775 2 2 6.4775 2 12C2 17.5225 6.4775 22 12 22C17.5225 22 22 17.5225 22 12C22 11.3295 21.931 10.675 21.8055 10.0415Z" fill="#FFC107"/>
    <path d="M3.153 7.3455L6.4385 9.755C7.3275 7.554 9.4805 6 12 6C13.5295 6 14.921 6.577 15.9805 7.5195L18.809 4.691C17.023 3.0265 14.634 2 12 2C8.159 2 4.828 4.1685 3.153 7.3455Z" fill="#FF3D00"/>
    <path d="M12 22C14.583 22 16.93 21.0115 18.7045 19.404L15.6095 16.785C14.5719 17.5745 13.3038 18.0014 12 18C9.399 18 7.1905 16.3415 6.3585 14.027L3.0975 16.5395C4.7525 19.778 8.1135 22 12 22Z" fill="#4CAF50"/>
    <path d="M21.8055 10.0415H21V10H12V14H17.6515C17.2571 15.1082 16.5467 16.0766 15.608 16.7855L15.6095 16.785L18.7045 19.404C18.4855 19.603 22 17 22 12C22 11.3295 21.931 10.675 21.8055 10.0415Z" fill="#1976D2"/>
  </symbol>

  <symbol id="instagram" viewBox="0 0 24 24">
    <path 
      d="M7.8 2H16.2C19.4 2 22 4.6 22 7.8V16.2C22 17.7383 21.3889 19.2135 20.3012 20.3012C19.2135 21.3889 17.7383 22 16.2 22H7.8C4.6 22 2 19.4 2 16.2V7.8C2 6.26174 2.61107 4.78649 3.69878 3.69878C4.78649 2.61107 6.26174 2 7.8 2ZM7.6 4C6.64522 4 5.72955 4.37928 5.05442 5.05442C4.37928 5.72955 4 6.64522 4 7.6V16.4C4 18.39 5.61 20 7.6 20H16.4C17.3548 20 18.2705 19.6207 18.9456 18.9456C19.6207 18.2705 20 17.3548 20 16.4V7.6C20 5.61 18.39 4 16.4 4H7.6ZM17.25 5.5C17.5815 5.5 17.8995 5.6317 18.1339 5.86612C18.3683 6.10054 18.5 6.41848 18.5 6.75C18.5 7.08152 18.3683 7.39946 18.1339 7.63388C17.8995 7.8683 17.5815 8 17.25 8C16.9185 8 16.6005 7.8683 16.3661 7.63388C16.1317 7.39946 16 7.08152 16 6.75C16 6.41848 16.1317 6.10054 16.3661 5.86612C16.6005 5.6317 16.9185 5.5 17.25 5.5ZM12 7C13.3261 7 14.5979 7.52678 15.5355 8.46447C16.4732 9.40215 17 10.6739 17 12C17 13.3261 16.4732 14.5979 15.5355 15.5355C14.5979 16.4732 13.3261 17 12 17C10.6739 17 9.40215 16.4732 8.46447 15.5355C7.52678 14.5979 7 13.3261 7 12C7 10.6739 7.52678 9.40215 8.46447 8.46447C9.40215 7.52678 10.6739 7 12 7ZM12 9C11.2044 9 10.4413 9.31607 9.87868 9.87868C9.31607 10.4413 9 11.2044 9 12C9 12.7956 9.31607 13.5587 9.87868 14.1213C10.4413 14.6839 11.2044 15 12 15C12.7956 15 13.5587 14.6839 14.1213 14.1213C14.6839 13.5587 15 12.7956 15 12C15 11.2044 14.6839 10.4413 14.1213 9.87868C13.5587 9.31607 12.7956 9 12 9Z" 
      fill="currentColor" 
    />
  </symbol>

  <symbol id="minus" viewBox="0 0 24 24">
    <path 
      d="M19 13H5V11H19V13Z" 
      fill="currentColor" 
    />
  </symbol>

  <symbol id="money" viewBox="0 0 24 24">
    <path 
      d="M11.8 10.9C9.53 10.31 8.8 9.7 8.8 8.75C8.8 7.66 9.81 6.9 11.5 6.9C13.28 6.9 13.94 7.75 14 9H16.21C16.14 7.28 15.09 5.7 13 5.19V3H10V5.16C8.06 5.58 6.5 6.84 6.5 8.77C6.5 11.08 8.41 12.23 11.2 12.9C13.7 13.5 14.2 14.38 14.2 15.31C14.2 16 13.71 17.1 11.5 17.1C9.44 17.1 8.63 16.18 8.52 15H6.32C6.44 17.19 8.08 18.42 10 18.83V21H13V18.85C14.95 18.48 16.5 17.35 16.5 15.3C16.5 12.46 14.07 11.49 11.8 10.9Z" 
      fill="currentColor" 
    />
  </symbol>

  <symbol id="navigate-before" viewBox="0 0 24 24">
    <path 
      d="M15.61 7.41L14.2 6L8.2 12L14.2 18L15.61 16.59L11.03 12L15.61 7.41Z" 
      fill="currentColor" 
    />
  </symbol>

  <symbol id="navigate-next" viewBox="0 0 24 24">
    <path 
      d="M10.02 6L8.61 7.41L13.19 12L8.61 16.59L10.02 18L16.02 12L10.02 6Z" 
      fill="currentColor" 
    />
  </symbol>

  <symbol id="search" viewBox="0 0 24 24">
    <path 
      d="M15.5 14H14.71L14.43 13.73C15.41 12.59 16 11.11 16 9.5C16 5.91 13.09 3 9.5 3C5.91 3 3 5.91 3 9.5C3 13.09 5.91 16 9.5 16C11.11 16 12.59 15.41 13.73 14.43L14 14.71V15.5L19 20.49L20.49 19L15.5 14ZM9.5 14C7.01 14 5 11.99 5 9.5C5 7.01 7.01 5 9.5 5C11.99 5 14 7.01 14 9.5C14 11.99 11.99 14 9.5 14Z" 
      fill="currentColor" 
    />
  </symbol>

  <symbol id="star-half" viewBox="0 0 24 24">
    <path 
      d="M22 9.24L14.81 8.62L12 2L9.19 8.63L2 9.24L7.46 13.97L5.82 21L12 17.27L18.18 21L16.55 13.97L22 9.24ZM12 15.4V6.1L13.71 10.14L18.09 10.52L14.77 13.4L15.77 17.68L12 15.4Z" 
      fill="currentColor" 
    />
  </symbol>

  <symbol id="star-outline" viewBox="0 0 24 24">
    <path 
      d="M22 9.24L14.81 8.62L12 2L9.19 8.63L2 9.24L7.46 13.97L5.82 21L12 17.27L18.18 21L16.55 13.97L22 9.24ZM12 15.4L8.24 17.67L9.24 13.39L5.92 10.51L10.3 10.13L12 6.1L13.71 10.14L18.09 10.52L14.77 13.4L15.77 17.68L12 15.4Z" 
      fill="currentColor" 
    />
  </symbol>

  <symbol id="star" viewBox="0 0 24 24">
    <path 
      d="M5.825 22L8.15 14.4L2 10H9.6L12 2L14.4 10H22L15.85 14.4L18.175 22L12 17.3L5.825 22Z" 
      fill="currentColor" 
    />
  </symbol>

  <symbol id="telegram" viewBox="0 0 24 24">
    <path 
      d="M20.4641 4.40976C20.569 4.49229 20.65 4.60133 20.6987 4.72561C20.7474 4.8499 20.762 4.98492 20.7411 5.11676L18.6761 18.1658L18.6731 18.1858C18.6568 18.301 18.6354 18.4154 18.6091 18.5288C18.5657 18.7116 18.4762 18.8803 18.3491 19.0188C18.2511 19.1212 18.1335 19.2029 18.0033 19.2591C17.8731 19.3152 17.7329 19.3447 17.5911 19.3458C17.405 19.343 17.2227 19.2931 17.0611 19.2008C16.9598 19.1431 16.861 19.081 16.7651 19.0148L16.7471 19.0038L14.2801 17.3548L11.9271 19.2758C11.817 19.3686 11.7029 19.4567 11.5851 19.5398C11.4087 19.6682 11.1982 19.7413 10.9801 19.7498C10.8204 19.7519 10.6622 19.718 10.5175 19.6505C10.3727 19.5829 10.2451 19.4836 10.1441 19.3598C10.0096 19.1854 9.93051 18.9746 9.91712 18.7548C9.90729 18.6116 9.90362 18.4682 9.90612 18.3248V18.3148L9.77012 14.5668L4.51412 13.0168L4.48812 13.0098C4.31816 12.9628 4.15004 12.9094 3.98412 12.8498C3.87412 12.8068 3.58212 12.6938 3.40712 12.4098C3.31471 12.2606 3.26117 12.0906 3.25139 11.9154C3.24161 11.7402 3.27589 11.5653 3.35112 11.4068C3.49412 11.1038 3.77112 10.9598 3.87612 10.9058C4.01012 10.8358 4.18412 10.7638 4.35912 10.6908L19.7121 4.30676C19.8354 4.25562 19.9701 4.2383 20.1023 4.25658C20.2344 4.27486 20.3594 4.32709 20.4641 4.40976ZM10.2981 13.1598L15.5281 8.25676L5.63612 11.7858L10.2981 13.1598ZM17.9151 8.06276L11.7071 13.8898L14.6511 15.7998L17.2561 17.5408L17.9151 8.06276Z" 
      fill="currentColor" 
    />
  </symbol>

  <symbol id="checkbox" viewBox="0 0 18 18">
    <path 
      d="M16 0H2C0.89 0 0 0.9 0 2V16C0 17.1 0.89 18 2 18H16C17.11 18 18 17.1 18 16V2C18 0.9 17.11 0 16 0ZM7 14L2 9L3.41 7.59L7 11.17L14.59 3.58L16 5L7 14Z" 
      fill="currentColor" 
    />
  </symbol>

  <symbol id="checkbox-outline" viewBox="0 0 18 18">
    <path 
      d="M16 2V16H2V2H16ZM16 0H2C0.89 0 0 0.9 0 2V16C0 17.1 0.89 18 2 18H16C17.1 18 18 17.1 18 16V2C18 0.9 17.11 0 16 0Z" 
      fill="currentColor" 
    />
  </symbol>

  <symbol id="radiobutton-outlined" viewBox="0 0 20 20">
    <path 
      d="M10 0C4.48 0 0 4.48 0 10C0 15.52 4.48 20 10 20C15.52 20 20 15.52 20 10C20 4.48 15.52 0 10 0ZM10 18C5.58 18 2 14.42 2 10C2 5.58 5.58 2 10 2C14.42 2 18 5.58 18 10C18 14.42 14.42 18 10 18Z" 
      fill="currentColor" 
    />
  </symbol>

  <symbol id="radiobutton" viewBox="0 0 20 20">
    <path 
      d="M10 5C7.24 5 5 7.24 5 10C5 12.76 7.24 15 10 15C12.76 15 15 12.76 15 10C15 7.24 12.76 5 10 5ZM10 0C4.48 0 0 4.48 0 10C0 15.52 4.48 20 10 20C15.52 20 20 15.52 20 10C20 4.48 15.52 0 10 0ZM10 18C5.58 18 2 14.42 2 10C2 5.58 5.58 2 10 2C14.42 2 18 5.58 18 10C18 14.42 14.42 18 10 18Z" 
      fill="currentColor" 
    />
  </symbol>

  <symbol id="person" viewBox="0 0 24 24">
    <path 
      d="M12 6C13.1 6 14 6.9 14 8C14 9.1 13.1 10 12 10C10.9 10 10 9.1 10 8C10 6.9 10.9 6 12 6ZM12 16C14.7 16 17.8 17.29 18 18H6C6.23 17.28 9.31 16 12 16ZM12 4C9.79 4 8 5.79 8 8C8 10.21 9.79 12 12 12C14.21 12 16 10.21 16 8C16 5.79 14.21 4 12 4ZM12 14C9.33 14 4 15.34 4 18V20H20V18C20 15.34 14.67 14 12 14Z" 
      fill="currentColor" 
    />
  </symbol>

  <symbol id="shopping-cart" viewBox="0 0 20 20">
    <path 
      d="M6 20C5.45 20 4.97933 19.8043 4.588 19.413C4.196 19.021 4 18.55 4 18C4 17.45 4.196 16.979 4.588 16.587C4.97933 16.1957 5.45 16 6 16C6.55 16 7.02067 16.1957 7.412 16.587C7.804 16.979 8 17.45 8 18C8 18.55 7.804 19.021 7.412 19.413C7.02067 19.8043 6.55 20 6 20ZM16 20C15.45 20 14.9793 19.8043 14.588 19.413C14.196 19.021 14 18.55 14 18C14 17.45 14.196 16.979 14.588 16.587C14.9793 16.1957 15.45 16 16 16C16.55 16 17.021 16.1957 17.413 16.587C17.8043 16.979 18 17.45 18 18C18 18.55 17.8043 19.021 17.413 19.413C17.021 19.8043 16.55 20 16 20ZM5.15 4L7.55 9H14.55L17.3 4H5.15ZM4.2 2H18.95C19.4 2 19.7083 2.16667 19.875 2.5C20.0417 2.83333 20.0333 3.18333 19.85 3.55L16.3 9.95C16.1167 10.2833 15.875 10.5417 15.575 10.725C15.275 10.9083 14.9333 11 14.55 11H7.1L6 13H18V15H6C5.25 15 4.68333 14.6707 4.3 14.012C3.91667 13.354 3.9 12.7 4.25 12.05L5.6 9.6L2 2H0V0H3.25L4.2 2Z" 
      fill="currentColor" 
    />
  </symbol>

  <symbol id="time-watch" viewBox="0 0 24 24">
    <path 
      d="M12 2C6.5 2 2 6.5 2 12C2 17.5 6.5 22 12 22C17.5 22 22 17.5 22 12C22 6.5 17.5 2 12 2ZM12 20C7.59 20 4 16.41 4 12C4 7.59 7.59 4 12 4C16.41 4 20 7.59 20 12C20 16.41 16.41 20 12 20ZM12.5 7H11V13L16.2 16.2L17 14.9L12.5 12.2V7Z" 
      fill="currentColor" 
    />
  </symbol>

  <symbol id="menu" viewBox="0 0 18 12">
    <path 
      d="M0 12H18V10H0V12ZM0 7H18V5H0V7ZM0 0V2H18V0H0Z" 
      fill="currentColor" 
    />
  </symbol>

  <symbol id="mail" viewBox="0 0 24 24">
    <path 
      d="M22 6C22 4.9 21.1 4 20 4H4C2.9 4 2 4.9 2 6V18C2 19.1 2.9 20 4 20H20C21.1 20 22 19.1 22 18V6ZM20 6L12 11L4 6H20ZM20 18H4V8L12 13L20 8V18Z" 
      fill="currentColor" 
    />
  </symbol>

  <symbol id="call" viewBox="0 0 24 24">
    <path 
      d="M6.54 5C6.6 5.89 6.75 6.76 6.99 7.59L5.79 8.79C5.38 7.59 5.12 6.32 5.03 5H6.54ZM16.4 17.02C17.25 17.26 18.12 17.41 19 17.47V18.96C17.68 18.87 16.41 18.61 15.2 18.21L16.4 17.02ZM7.5 3H4C3.45 3 3 3.45 3 4C3 13.39 10.61 21 20 21C20.55 21 21 20.55 21 20V16.51C21 15.96 20.55 15.51 20 15.51C18.76 15.51 17.55 15.31 16.43 14.94C16.33 14.9 16.22 14.89 16.12 14.89C15.86 14.89 15.61 14.99 15.41 15.18L13.21 17.38C10.38 15.93 8.06 13.62 6.62 10.79L8.82 8.59C9.1 8.31 9.18 7.92 9.07 7.57C8.7 6.45 8.5 5.25 8.5 4C8.5 3.45 8.05 3 7.5 3Z" 
      fill="currentColor" 
    />
  </symbol>

  <symbol id="location" viewBox="0 0 24 24">
    <path 
      d="M12 12C10.9 12 10 11.1 10 10C10 8.9 10.9 8 12 8C13.1 8 14 8.9 14 10C14 11.1 13.1 12 12 12ZM18 10.2C18 6.57 15.35 4 12 4C8.65 4 6 6.57 6 10.2C6 12.54 7.95 15.64 12 19.34C16.05 15.64 18 12.54 18 10.2ZM12 2C16.2 2 20 5.22 20 10.2C20 13.52 17.33 17.45 12 22C6.67 17.45 4 13.52 4 10.2C4 5.22 7.8 2 12 2Z" 
      fill="currentColor" 
    />
  </symbol>

  <symbol id="edit" viewBox="0 0 24 24">
    <path 
      d="M3 17.25V21H6.75L17.81 9.94L14.06 6.19L3 17.25ZM5.92 19H5V18.08L14.06 9.02L14.98 9.94L5.92 19ZM20.71 5.63L18.37 3.29C18.17 3.09 17.92 3 17.66 3C17.4 3 17.15 3.1 16.96 3.29L15.13 5.12L18.88 8.87L20.71 7.04C21.1 6.65 21.1 6.02 20.71 5.63Z" 
      fill="currentColor" 
    />
  </symbol>

  <symbol id="close" viewBox="0 0 24 24">
    <path 
      d="M19 6.41L17.59 5L12 10.59L6.41 5L5 6.41L10.59 12L5 17.59L6.41 19L12 13.41L17.59 19L19 17.59L13.41 12L19 6.41Z" 
      fill="currentColor" 
    />
  </symbol>

  <symbol id="visibility" viewBox="0 0 24 24">
    <path 
      d="M12 6C15.79 6 19.17 8.13 20.82 11.5C19.17 14.87 15.79 17 12 17C8.21 17 4.83 14.87 3.18 11.5C4.83 8.13 8.21 6 12 6ZM12 4C7 4 2.73 7.11 1 11.5C2.73 15.89 7 19 12 19C17 19 21.27 15.89 23 11.5C21.27 7.11 17 4 12 4ZM12 9C13.38 9 14.50 10.12 14.50 11.5C14.50 12.88 13.38 14 12 14C10.62 14 9.50 12.88 9.50 11.5C9.50 10.12 10.62 9 12 9ZM12 7C9.52 7 7.50 9.02 7.50 11.5C7.50 13.98 9.52 16 12 16C14.48 16 16.50 13.98 16.50 11.5C16.50 9.02 14.48 7 12 7Z" 
      fill="currentColor" 
    />
  </symbol>

  <symbol id="visibility-off" viewBox="0 0 24 24">
    <path 
      d="M12 6C15.79 6 19.17 8.13 20.82 11.5C20.23 12.72 19.4 13.77 18.41 14.62L19.82 16.03C21.21 14.8 22.31 13.26 23 11.5C21.27 7.11 17 4 12 4C10.73 4 9.51 4.2 8.36 4.57L10.01 6.22C10.66 6.09 11.32 6 12 6ZM10.93 7.14L13 9.21C13.57 9.46 14.03 9.92 14.28 10.49L16.35 12.56C16.43 12.22 16.49 11.86 16.49 11.49C16.5 9.01 14.48 7 12 7C11.63 7 11.28 7.05 10.93 7.14ZM2.01 3.87L4.69 6.55C3.06 7.83 1.77 9.53 1 11.5C2.73 15.89 7 19 12 19C13.52 19 14.98 18.71 16.32 18.18L19.74 21.6L21.15 20.19L3.42 2.45L2.01 3.87ZM9.51 11.37L12.12 13.98C12.08 13.99 12.04 14 12 14C10.62 14 9.5 12.88 9.5 11.5C9.5 11.45 9.51 11.42 9.51 11.37ZM6.11 7.97L7.86 9.72C7.63 10.27 7.5 10.87 7.5 11.5C7.5 13.98 9.52 16 12 16C12.63 16 13.23 15.87 13.77 15.64L14.75 16.62C13.87 16.86 12.95 17 12 17C8.21 17 4.83 14.87 3.18 11.5C3.88 10.07 4.9 8.89 6.11 7.97Z" 
      fill="currentColor" 
    />
  </symbol>

  <symbol id="vector" viewBox="0 0 24 24">
    <path 
      d="M12 2C6.48 2 2 6.48 2 12C2 17.52 6.48 22 12 22C17.52 22 22 17.52 22 12C22 6.48 17.52 2 12 2ZM12 20C7.59 20 4 16.41 4 12C4 7.59 7.59 4 12 4C16.41 4 20 7.59 20 12C20 16.41 16.41 20 12 20ZM16.59 7.58L10 14.17L7.41 11.59L6 13L10 17L18 9L16.59 7.58Z" 
      fill="currentColor" 
    />
  </symbol>

  <symbol id="yes" viewBox="0 0 24 24">
    <path 
      d="M8 9.5L12 13.17L18.5 5.5L19.5 7L12 16L7 11L8 9.5Z" 
      fill="currentColor" 
    />
  </symbol>
  
</svg>