<svg width="30" height="35" viewBox="0 0 30 35" fill="none" xmlns="http://www.w3.org/2000/svg">
<path d="M29 13.8C29 24.2 15 33 15 33C15 33 1 24.2 1 13.8C1 10.4052 2.475 7.1495 5.10051 4.74903C7.72601 2.34857 11.287 1 15 1C18.713 1 22.274 2.34857 24.8995 4.74903C27.525 7.1495 29 10.4052 29 13.8Z" stroke="white" stroke-width="2"/>
<path d="M20.25 13.8C20.25 15.073 19.6969 16.2939 18.7123 17.1941C17.7277 18.0943 16.3924 18.6 15 18.6C13.6076 18.6 12.2723 18.0943 11.2877 17.1941C10.3031 16.2939 9.75 15.073 9.75 13.8C9.75 12.527 10.3031 11.3061 11.2877 10.4059C12.2723 9.50571 13.6076 9 15 9C16.3924 9 17.7277 9.50571 18.7123 10.4059C19.6969 11.3061 20.25 12.527 20.25 13.8Z" stroke="white" stroke-width="2"/>
</svg>
